<svg width="24" height="24" viewBox="0 0 24 24" fill="none" xmlns="http://www.w3.org/2000/svg">
<path fill-rule="evenodd" clip-rule="evenodd" d="M15 4.5C15 4.5 15 3.87868 15.4393 3.43934C15.4393 3.43934 15.8787 3 16.5 3H19.5C19.5 3 20.1213 3 20.5607 3.43934C20.5607 3.43934 21 3.87868 21 4.5V7.5C21 7.5 21 8.12132 20.5607 8.56066C20.5607 8.56066 20.1213 9 19.5 9H16.5C16.5 9 15.8787 9 15.4393 8.56066C15.4393 8.56066 15 8.12132 15 7.5V4.5ZM16.5 4.5V7.5H19.5V4.5H16.5Z" fill="white"/>
<path fill-rule="evenodd" clip-rule="evenodd" d="M3 4.5C3 4.5 3 3.87868 3.43934 3.43934C3.43934 3.43934 3.87868 3 4.5 3H7.5C7.5 3 8.12132 3 8.56066 3.43934C8.56066 3.43934 9 3.87868 9 4.5V7.5C9 7.5 9 8.12132 8.56066 8.56066C8.56066 8.56066 8.12132 9 7.5 9H4.5C4.5 9 3.87868 9 3.43934 8.56066C3.43934 8.56066 3 8.12132 3 7.5V4.5ZM4.5 4.5V7.5H7.5V4.5H4.5Z" fill="white"/>
<path fill-rule="evenodd" clip-rule="evenodd" d="M15 16.5C15 16.5 15 15.8787 15.4393 15.4393C15.4393 15.4393 15.8787 15 16.5 15H19.5C19.5 15 20.1213 15 20.5607 15.4393C20.5607 15.4393 21 15.8787 21 16.5V19.5C21 19.5 21 20.1213 20.5607 20.5607C20.5607 20.5607 20.1213 21 19.5 21H16.5C16.5 21 15.8787 21 15.4393 20.5607C15.4393 20.5607 15 20.1213 15 19.5V16.5ZM16.5 16.5V19.5H19.5V16.5H16.5Z" fill="white"/>
<path fill-rule="evenodd" clip-rule="evenodd" d="M3 16.5C3 16.5 3 15.8787 3.43934 15.4393C3.43934 15.4393 3.87868 15 4.5 15H7.5C7.5 15 8.12132 15 8.56066 15.4393C8.56066 15.4393 9 15.8787 9 16.5V19.5C9 19.5 9 20.1213 8.56066 20.5607C8.56066 20.5607 8.12132 21 7.5 21H4.5C4.5 21 3.87868 21 3.43934 20.5607C3.43934 20.5607 3 20.1213 3 19.5V16.5ZM4.5 16.5V19.5H7.5V16.5H4.5Z" fill="white"/>
<path d="M6.75 15.75V8.25C6.75 7.83579 6.41421 7.5 6 7.5C5.58579 7.5 5.25 7.83579 5.25 8.25V15.75C5.25 16.1642 5.58579 16.5 6 16.5C6.41421 16.5 6.75 16.1642 6.75 15.75Z" fill="white"/>
<path d="M15.75 17.25H8.25C7.83579 17.25 7.5 17.5858 7.5 18C7.5 18.4142 7.83579 18.75 8.25 18.75H15.75C16.1642 18.75 16.5 18.4142 16.5 18C16.5 17.5858 16.1642 17.25 15.75 17.25Z" fill="white"/>
<path d="M17.25 8.25V15.75C17.25 16.1642 17.5858 16.5 18 16.5C18.4142 16.5 18.75 16.1642 18.75 15.75V8.25C18.75 7.83579 18.4142 7.5 18 7.5C17.5858 7.5 17.25 7.83579 17.25 8.25Z" fill="white"/>
<path d="M8.25 6.75H15.75C16.1642 6.75 16.5 6.41421 16.5 6C16.5 5.58579 16.1642 5.25 15.75 5.25H8.25C7.83579 5.25 7.5 5.58579 7.5 6C7.5 6.41421 7.83579 6.75 8.25 6.75Z" fill="white"/>
</svg>
