<svg width="24" height="24" viewBox="0 0 24 24" fill="none" xmlns="http://www.w3.org/2000/svg">
<path d="M11.2497 4.875V11.25C11.2497 11.6642 11.5855 12 11.9997 12C12.414 12 12.7497 11.6642 12.7497 11.25V4.875C12.7497 3.78769 11.9809 3.01884 11.9809 3.01884C11.2121 2.25 10.1247 2.25 10.1247 2.25C9.03744 2.25 8.26859 3.01884 8.26859 3.01884C7.49975 3.78769 7.49975 4.875 7.49975 4.875L7.49975 11.9435L6.84643 10.8099C6.30296 9.86696 5.25195 9.58451 5.25195 9.58451C4.20094 9.30206 3.25804 9.84552 3.25804 9.84552C2.31514 10.389 2.03269 11.44 2.03269 11.44C1.7544 12.4755 2.27788 13.4061 2.27788 13.4061C3.50144 15.9826 4.42169 17.5197 4.42169 17.5197C5.4901 19.3042 6.5328 20.3496 6.5328 20.3496C7.66047 21.4801 8.99549 21.9972 8.99549 21.9972C10.2938 22.5 11.9997 22.5 11.9997 22.5C13.6408 22.5 15.1569 21.872 15.1569 21.872C16.673 21.244 17.8334 20.0836 17.8334 20.0836C18.9938 18.9232 19.6218 17.4071 19.6218 17.4071C20.2497 15.891 20.2497 14.25 20.2497 14.25V6.375C20.2497 5.28769 19.4809 4.51884 19.4809 4.51884C18.7121 3.75 17.6247 3.75 17.6247 3.75C16.5374 3.75 15.7686 4.51884 15.7686 4.51884C14.9997 5.28769 14.9997 6.375 14.9997 6.375V11.25C14.9997 11.6642 15.3355 12 15.7497 12C16.164 12 16.4997 11.6642 16.4997 11.25V6.375C16.4997 5.90901 16.8293 5.57951 16.8293 5.57951C17.1588 5.25 17.6247 5.25 17.6247 5.25C18.0907 5.25 18.4202 5.57951 18.4202 5.57951C18.7497 5.90901 18.7497 6.375 18.7497 6.375V14.25C18.7497 15.5927 18.2359 16.8331 18.2359 16.8331C17.7221 18.0736 16.7727 19.023 16.7727 19.023C15.8233 19.9724 14.5829 20.4862 14.5829 20.4862C13.3424 21 11.9997 21 11.9997 21C10.5741 21 9.53721 20.5984 9.53721 20.5984C8.49827 20.196 7.59482 19.2903 7.59482 19.2903C6.68234 18.3754 5.70866 16.7492 5.70866 16.7492C4.82108 15.2667 3.62108 12.7378 3.62108 12.7378C3.61253 12.7198 3.60326 12.7021 3.59329 12.6849C3.3601 12.2803 3.4813 11.8293 3.4813 11.8293C3.60249 11.3783 4.00708 11.1451 4.00708 11.1451C4.41167 10.9119 4.86265 11.0331 4.86265 11.0331C5.31363 11.1543 5.54681 11.5589 5.54681 11.5589L7.59994 15.1214C7.73384 15.3537 7.98159 15.4969 8.24975 15.4969C8.66396 15.4969 8.99975 15.1611 8.99975 14.7469L8.99975 4.875C8.99975 4.40901 9.32925 4.0795 9.32925 4.0795C9.65876 3.75 10.1247 3.75 10.1247 3.75C10.5907 3.75 10.9202 4.0795 10.9202 4.0795C11.2497 4.40901 11.2497 4.875 11.2497 4.875Z" fill="white"/>
<path d="M12.0186 1.51884C11.2498 2.28769 11.2498 3.375 11.2498 3.375L11.2497 4.875C11.2497 5.28921 11.5855 5.625 11.9998 5.625C12.414 5.625 12.7497 5.28921 12.7497 4.875L12.7498 3.375C12.7498 2.90901 13.0793 2.5795 13.0793 2.5795C13.4088 2.25 13.8748 2.25 13.8748 2.25C14.3408 2.25 14.6703 2.5795 14.6703 2.5795C14.9998 2.90901 14.9998 3.375 14.9998 3.375L14.9997 6.375C14.9997 6.78921 15.3355 7.125 15.7498 7.125C16.164 7.125 16.4997 6.78921 16.4997 6.375L16.4998 3.375C16.4998 2.28769 15.7309 1.51884 15.7309 1.51884C14.9621 0.75 13.8748 0.75 13.8748 0.75C12.7874 0.75 12.0186 1.51884 12.0186 1.51884Z" fill="white"/>
</svg>
